<svg id="Layer_1" data-name="Layer 1" xmlns="http://www.w3.org/2000/svg" viewBox="0 0 150 150"><defs><style>.cls-1{fill:#fefefe;}.cls-2{fill:#bfa01a;}.cls-3{fill:#bea322;}.cls-4{fill:#f9faf2;}.cls-5{fill:#bfa31f;}.cls-6{fill:#bfa323;}.cls-7{fill:#c0a626;}.cls-8{fill:#bea220;}.cls-9{fill:#c0a82a;}.cls-10{fill:#c2a322;}.cls-11{fill:#c6b04a;}.cls-12{fill:#fafbf6;}.cls-13{fill:#fbfbf5;}.cls-14{fill:#c4b74e;}.cls-15{fill:#c3b552;}.cls-16{fill:#c5b95c;}.cls-17{fill:#d4c375;}.cls-18{fill:#d4c67f;}.cls-19{fill:#c9b349;}.cls-20,.cls-36{fill:#baa524;}.cls-21{fill:#be9f17;}.cls-22{fill:#bea21e;}.cls-23{fill:#bfa627;}.cls-24{fill:#bea01d;}.cls-25{fill:#bd9f10;}.cls-26{fill:#bc9d08;}.cls-27{fill:#c9b554;}.cls-28{fill:#c8b555;}.cls-29{fill:#c8b859;}.cls-30{fill:#c1bf66;}.cls-31{fill:#f7f3dc;}.cls-32{fill:#f6f2dd;}.cls-33{fill:#fafaf6;}.cls-34{fill:#eeebd5;}.cls-35{fill:#fff;}.cls-36{font-size:15.14px;font-family:SitkaBanner, Sitka;}.cls-37{letter-spacing:-0.03em;}.cls-38{letter-spacing:-0.01em;}</style></defs><title>323</title><path class="cls-1" d="M604.65,282.47h-5.27c-.27-.63.32-.78.68-1.16a4,4,0,0,1-3.59.47c-2.46-1.34-2.21-3.6-1.9-5.79a3,3,0,0,1,3.3-2.73,2.8,2.8,0,0,1,2.24.93,2.61,2.61,0,0,0-1.82-.94c-2.41-.23-3.67,1.28-4.55,3.12s0,3.32,1.38,4.61c.43.4,1.12.7.9,1.5H591.7a1.58,1.58,0,0,0-1.27-.47c-3.59,0-3.7-.15-3.72-3.76a25,25,0,0,1,.07-2.83c.12-1.11.56-1.93,1.74-1.92-1.81-.25-2.38.76-2.39,2.5a24.1,24.1,0,0,1-.23,5.87,3.8,3.8,0,0,1-.43.61h-3.84c-1.16-3-.72-5.88-.16-8.88-.38,0-1,.05-1.71,0,0,0-.08.15-.07.17a2.33,2.33,0,0,1,.31.36,3.26,3.26,0,0,1,.34,1.36c0,1.72,0,3.44,0,5.16a4.67,4.67,0,0,1-.07.8,2.37,2.37,0,0,1-.58,1.05h-6.23a.49.49,0,0,1-.14-.4c0-.14,0-.21.07-.21,3.29-3.17,3.25-5.84-.13-8-2.91-.57-4.52,0-5.48,1.85s-.44,3.86,1.9,6.09a.54.54,0,0,1-.06.62h-4.32a8.86,8.86,0,0,1-1.82-2.45,2.1,2.1,0,0,1,.2-2.8c1.38-1.4,1-2.48-.64-3.3a3.9,3.9,0,0,0-3.52.17c-.48,1.83-.12,3.69-.23,5.53-.06,1,.05,2-.7,2.85H551.9a3.5,3.5,0,0,1-.39-3.46c.65-1.11,1.9-1,2.92-1.34a1.83,1.83,0,0,0,1.5-1.85,1.71,1.71,0,0,0-1.45-1.9c-1.3-.13-3-1.35-3.78.85-.31,2.57.69,5.24-.72,7.7h-5.75c-1.85-2.11-2.35-4.88-3.62-7.28-.39-.74-.54-.84-.86,0-1.34,2.38-1.63,5.28-3.66,7.31h-3.84a1.55,1.55,0,0,1-.27-.38c-1.24-3.39-.34-4.61,3.37-4.61.32,0,0-.45.1-.16q0,.11-.2.12c-3.28.21-3.8-.3-3.34-3.26.41-.72,1.14-.66,1.82-.71-2.74.11-2.75.11-2.75,2.78,0,1.86-.07,3.73.1,5.59a1.15,1.15,0,0,1-.26.62h-1.44c-.3-.53-.82-.48-1.32-.48-3.47,0-3.62-.16-3.67-3.49a31.07,31.07,0,0,0-.06-3.27c-.14,2.23.24,4.45-.27,6.64a3.78,3.78,0,0,1-.43.61H521.7c-1.3-2.63-2.28-5.4-3.64-8a13.34,13.34,0,0,0-.82,1.64c-1.22,2.06-1.4,4.63-3.21,6.4-6.95,0-13.9,0-20.85,0-1.4,0-1.74-.24-1.73-1.68.07-17.89,0-35.77,0-53.66q0-42.31-.06-84.63c0-1.81.51-2,2.13-2q69.85.07,139.7,0c1.64,0,2.13.22,2.12,2q-.1,69,0,138c0,1.65-.37,1.94-2,1.92-9.1-.1-18.21,0-27.32,0-1.28-2.37-.61-4.88-.55-7.35a2,2,0,0,1,1.36-1.52c.32,0,0-.45,0-.14s0,.13-.24.06-.47.05-.7.08a8.42,8.42,0,0,1-1.31,0l-.46,0c1.14,2.69.31,5.54.71,8.3A1.07,1.07,0,0,1,604.65,282.47Z" transform="translate(-491.43 -140.53)"/><path class="cls-2" d="M598.42,273.48c-1.77.1-3.1.88-3.36,2.67-.3,2.07-.6,4.27,1.9,5.44.34.52,1.57-.37,1.45.88H596c-3.62-2.35-4.26-5.83-1.57-8.35a4.56,4.56,0,0,1,4-1.1q.25.15.17.31T598.42,273.48Z" transform="translate(-491.43 -140.53)"/><path class="cls-3" d="M563.52,273.38c2.5,1.58,2.6,2.48.29,4.4-.78.65-.3,1,0,1.56.5,1,1.41,1.9,1.57,3.12h-1.92c-1.4-.8-1.81-2.3-2.51-3.58a1.19,1.19,0,0,1,.4-1.66c1.43-.8,1.43-2.09,1.38-3.43C562.85,273.44,563.08,273.21,563.52,273.38Z" transform="translate(-491.43 -140.53)"/><path class="cls-4" d="M562.82,274.09c.94,1.35,1.36,2.64-.74,3.24-1.19.34-1.06.83-.56,1.66.68,1.13,1.27,2.32,1.89,3.48h-3.36a1.33,1.33,0,0,1-.24-.82c.12-2.09-.09-4.19.13-6.27C560.14,273.51,560.87,273.23,562.82,274.09Z" transform="translate(-491.43 -140.53)"/><path class="cls-5" d="M516.87,275.8a4.85,4.85,0,0,1,1.29-2.62c1.26,2.81,2.45,5.52,3.68,8.2.2.44,0,.74-.14,1.08h-1.44a3,3,0,0,1-1-1.59,6.56,6.56,0,0,0-.83-1.6,9.24,9.24,0,0,0-1.45-2.64C516.84,276.38,516.64,276.11,516.87,275.8Z" transform="translate(-491.43 -140.53)"/><path class="cls-6" d="M539.4,274.84a2.34,2.34,0,0,1,.91-1.54,64.16,64.16,0,0,1,3.93,9.16h-1.44c-.65-.4-1.31-.8-1.48-1.63a9.42,9.42,0,0,0-.88-1.65c-.38-.89-.67-1.82-1.05-2.72A2,2,0,0,1,539.4,274.84Z" transform="translate(-491.43 -140.53)"/><path class="cls-7" d="M530.81,282.47a1.78,1.78,0,0,1-.05-.39c-.4-2.57-.08-5.16-.17-7.74,0-.49.07-1,.7-1s1.15,0,1.08.8c-.83,3.49,1.77,3.12,4,3.13-.21.3-.27.48-.35.49-3.39.39-3.39.39-3.78,4.75Z" transform="translate(-491.43 -140.53)"/><path class="cls-8" d="M550,282.47l.05-8.52c.78-1,1.43-.87,1.83.27a14.9,14.9,0,0,1,.25,2.81,4.36,4.36,0,0,1,.13.69,1.18,1.18,0,0,1-.35.95v3.8Z" transform="translate(-491.43 -140.53)"/><path class="cls-9" d="M604.67,273.08h1.4c.46.45.29,1,.11,1.45l-.09,7.92h-1.44l0-.41A37,37,0,0,1,604.67,273.08Z" transform="translate(-491.43 -140.53)"/><path class="cls-10" d="M560.09,282.05a.93.93,0,0,0,0,.41h-1.44c0-2.67-.07-5.35-.07-8,0-.49-.23-1.15.56-1.36.72.18,1.27.44,1.2,1.38C560.14,277,560.53,279.53,560.09,282.05Z" transform="translate(-491.43 -140.53)"/><path class="cls-11" d="M579.71,282.47l.07-1c1.14-1.81,1.08-6-.11-7.51-.74-.22-1.6.23-2.62-.7h6.77c-3.23.54-2.1,3-2.19,4.94-.07,1.41,0,2.82,0,4.23Z" transform="translate(-491.43 -140.53)"/><path class="cls-12" d="M519.69,280.7l.57,1.77H515a2.08,2.08,0,0,1,1.43-2.76A2.48,2.48,0,0,1,519.69,280.7Z" transform="translate(-491.43 -140.53)"/><path class="cls-13" d="M541.8,280.63a3.51,3.51,0,0,0,1,1.84H537a2.16,2.16,0,0,1,1.24-2.68A2.73,2.73,0,0,1,541.8,280.63Z" transform="translate(-491.43 -140.53)"/><path class="cls-14" d="M541.8,280.63c-2.76-1.39-3.49-1.11-4.76,1.84h-1a54,54,0,0,1,3.31-7.62l.46,1.59c-.29,1.14-.4,2.21,1,2.72C541.17,279.65,542,279.85,541.8,280.63Z" transform="translate(-491.43 -140.53)"/><path class="cls-15" d="M519.69,280.7c-2.49-1.48-3.7-1-4.7,1.77h-1a29.16,29.16,0,0,1,2.84-6.66l.59.59c-.15,1.18,0,2.24,1.32,2.71C519.1,279.63,519.92,279.87,519.69,280.7Z" transform="translate(-491.43 -140.53)"/><path class="cls-16" d="M598.41,282.47l-1.45-.88a4.25,4.25,0,0,0,4.16-2.16c.4,2-1.15,2.22-1.76,3Z" transform="translate(-491.43 -140.53)"/><path class="cls-17" d="M528.83,281.58c1-.18.7.39.54.89h-5.75a.62.62,0,0,1,0-.45C525.27,281.13,527.13,282.25,528.83,281.58Z" transform="translate(-491.43 -140.53)"/><path class="cls-18" d="M585.47,282.47l.07-.52c1.82-.92,3.76.36,5.59-.33.51.07.49.49.57.85Z" transform="translate(-491.43 -140.53)"/><path class="cls-19" d="M573.53,282a.4.4,0,0,0,0,.44h-3.84a.73.73,0,0,0-.07-.43,1,1,0,0,1,.55-.73,15.83,15.83,0,0,1,2.8,0A.9.9,0,0,1,573.53,282Z" transform="translate(-491.43 -140.53)"/><path class="cls-20" d="M629.61,201.58c-2.47,3.2-5.19,5.27-7.62,7.59-8,7.66-16.13,15.15-24.22,22.7Q581,247.49,564.31,263.13c-1,1-1.52.8-2.47-.09q-24.39-23-48.88-45.82c-1.18-1.1-1.08-1.69,0-2.72q12.51-11.59,24.94-23.26l1.92-1.77c3.39-3.16,3.27-3,6.77,0,6.6,5.74,13.36,11.31,20,17,2.71,2.29,5.38,4.63,8.09,6.93.75.64.88,1.16.09,1.92q-8.45,8.14-16.84,16.36c-1,1-1.65.54-2.42-.14-1.72-1.52-3.38-3.12-5.19-4.53-1.43-1.12-1.12-1.9.06-2.95,2.84-2.52,5.56-5.18,8.42-7.68,1.39-1.2,1.29-2-.06-3.16-4.45-3.76-8.85-7.59-13.24-11.41a2.05,2.05,0,0,0-3.14,0c-4.33,4-8.65,8.1-13,12.1-1.27,1.16-1.1,1.89.15,3q16.18,14.34,32.23,28.83c1.63,1.47,2.49.31,3.37-.51,3.64-3.41,7.15-6.94,10.75-10.39,10-9.64,20.28-19.1,30.07-29,3.33-3.36,6.67-4.78,11.31-4.35C621.16,201.86,625.09,201.58,629.61,201.58Z" transform="translate(-491.43 -140.53)"/><path class="cls-20" d="M624.35,197.33c-19.36,0-38.2,0-57,0a5.49,5.49,0,0,1-4.19-1.63c-3.2-3.06-6.58-5.93-10.42-9.36h41.63l.22-.68c-3.05-2.81-6.1-5.64-9.17-8.44-6.85-6.26-13.74-12.46-20.53-18.78-1.31-1.22-2-1.44-3.45-.05-5.93,5.86-12,11.61-18,17.35-11,10.45-22,21-33.2,31.24-4.49,4.1-2.65,4.36-7.47-.19a18.82,18.82,0,0,0-2.64-2.33c-2.27-1.44-1.71-2.59,0-4.14,6-5.51,12-11.12,18-16.71,3.63-3.4,7.19-6.86,10.84-10.23,3.82-3.53,7.75-6.95,11.55-10.49q9.29-8.66,18.46-17.45c.46-.44,1-.79,1.44-1.19,1.24-1.06,2.15-3.19,3.72-3,1.3.16,2.42,1.9,3.58,3Q595.46,170.15,623.3,196A15.68,15.68,0,0,1,624.35,197.33Z" transform="translate(-491.43 -140.53)"/><path class="cls-21" d="M591.13,281.62c-1.83.72-3.73.23-5.59.33,0-2.35,0-4.7-.12-7-.07-1.41.35-2,1.86-1.87,1.32.12,2.65,0,4,0-.16,1-.87.85-1.33.78-2.55-.44-3,.9-2.61,2.93a5.13,5.13,0,0,1,.06.93C587.36,281.44,587.36,281.44,591.13,281.62Z" transform="translate(-491.43 -140.53)"/><path class="cls-22" d="M570.12,281.53l-.54.51c-2.8-1.43-3.73-3.7-2.58-6.32,1.06-2.42,3.56-3.29,6.56-2.28a1,1,0,0,1-.68.71c-3,.21-3.64,1-3.62,4C569.27,279.36,569.94,280.37,570.12,281.53Z" transform="translate(-491.43 -140.53)"/><path class="cls-23" d="M551.9,278.67l0-.86c.42-.64,1.28-.57,1.78-1.07a1.27,1.27,0,0,0,.26-1.5c-.16-.36-.43-.74-.88-.57s-.47.74-.52,1.19c-.07.69,0,1.41-.67,1.9-.76-.89-.37-1.94-.4-2.92s-.35-1.48-1.4-.89c1.24-2,3-.74,4.56-.65a2.28,2.28,0,0,1,2.23,2.35c0,1.33-.43,2.33-1.88,2.58C553.94,278.4,552.92,278.52,551.9,278.67Z" transform="translate(-491.43 -140.53)"/><path class="cls-24" d="M573,273.87l.54-.42a4.13,4.13,0,0,1,2.93,4.29,4.2,4.2,0,0,1-3,4.29l-.54-.53A10.72,10.72,0,0,0,573,273.87Z" transform="translate(-491.43 -140.53)"/><path class="cls-25" d="M528.83,281.58c-1.69.8-3.51.16-5.24.43,0-2.51-.09-5-.1-7.54,0-.58-.19-1.35.81-1.39s.9.71.9,1.32a40.07,40.07,0,0,1,0,4.72c-.22,2,.5,2.76,2.49,2.44A6.65,6.65,0,0,1,528.83,281.58Z" transform="translate(-491.43 -140.53)"/><path class="cls-26" d="M579.68,274c.93-.83,1.41-.49,1.44.61,0,2.09,0,4.18,0,6.27,0,1.14-.58,1.09-1.35.63a.75.75,0,0,1,0-.46,19.77,19.77,0,0,0,0-5.69Z" transform="translate(-491.43 -140.53)"/><path class="cls-27" d="M532.37,274.1c-1.33-1.26-1.53-.34-1.54.8,0,2.39,0,4.78-.07,7.17-.79-2.69-.21-5.44-.33-8.16,0-.7.48-.92,1.12-.92h5.56C535.28,274.45,533.68,273.59,532.37,274.1Z" transform="translate(-491.43 -140.53)"/><path class="cls-28" d="M560.09,282.05c0-2.26-.07-4.51,0-6.77a2.18,2.18,0,0,0-1-2.19c1.48,0,3-.44,4.42.29l-.7.71c-1.93-.61-2.44.19-2.39,2S560.88,280.12,560.09,282.05Z" transform="translate(-491.43 -140.53)"/><path class="cls-29" d="M604.67,273.08l-.06,9c-.77-1.82-.35-3.72-.29-5.57s-.28-2.87-2.68-2.65C602.7,272.57,603.74,273.08,604.67,273.08Z" transform="translate(-491.43 -140.53)"/><path class="cls-29" d="M606.17,274.54l-.11-1.45a4.16,4.16,0,0,1,2.78.24C608.14,274.42,606.69,273.49,606.17,274.54Z" transform="translate(-491.43 -140.53)"/><path class="cls-30" d="M598.42,273.48a2.35,2.35,0,0,0,0-.47c1.39-.21,2.09.66,2.92,1.75C599.8,275.15,599.39,273.73,598.42,273.48Z" transform="translate(-491.43 -140.53)"/><path class="cls-11" d="M579.79,275.36a9,9,0,0,1,0,5.69Q579.79,278.21,579.79,275.36Z" transform="translate(-491.43 -140.53)"/><path class="cls-31" d="M518.78,279.1c-2.57,0-2.57,0-1.32-2.71A4.59,4.59,0,0,1,518.78,279.1Z" transform="translate(-491.43 -140.53)"/><path class="cls-32" d="M540.88,279.15c-.73-.08-1.85.44-2.09-.33s.37-1.73,1.07-2.39A5.61,5.61,0,0,1,540.88,279.15Z" transform="translate(-491.43 -140.53)"/><path class="cls-33" d="M573,273.87c2.11,2.73,2.1,5.1,0,7.63a3.43,3.43,0,0,1-2.87,0c-1.77-1.46-1.78-3.41-1.39-5.38C569.17,274,570.54,273.32,573,273.87Z" transform="translate(-491.43 -140.53)"/><path class="cls-34" d="M551.84,277.76a15.49,15.49,0,0,1,0-2.12c.1-.74-.53-2,.91-2a2,2,0,0,1,2.13,1.53c.19,1,.16,2.12-1.13,2.5a8.35,8.35,0,0,1-1.88.11Z" transform="translate(-491.43 -140.53)"/><rect class="cls-35" x="17.16" y="125.14" width="108.68" height="17.97"/><text class="cls-36" transform="translate(21.15 137.2) scale(1.01 1)">AL <tspan class="cls-37" x="19" y="0">F</tspan><tspan x="25.77" y="0">A P </tspan><tspan class="cls-38" x="48.33" y="0">R</tspan><tspan x="56.71" y="0">OTECT</tspan></text></svg>